<mxfile host="Electron" agent="Mozilla/5.0 (X11; Linux x86_64) AppleWebKit/537.36 (KHTML, like Gecko) draw.io/26.0.4 Chrome/128.0.6613.186 Electron/32.3.0 Safari/537.36" version="26.0.4" pages="6">
  <diagram id="5784bMHFp9fNtqtGz60R" name="index">
    <mxGraphModel dx="1687" dy="1026" grid="1" gridSize="10" guides="1" tooltips="1" connect="1" arrows="1" fold="1" page="1" pageScale="1" pageWidth="1600" pageHeight="900" math="0" shadow="0">
      <root>
        <mxCell id="0" />
        <mxCell id="1" parent="0" />
        <mxCell id="vzUATJpttP08snooLaVd-1" value="button" style="rounded=0;whiteSpace=wrap;html=1;" parent="1" vertex="1">
          <mxGeometry x="1472" y="18" width="110" height="50" as="geometry" />
        </mxCell>
        <mxCell id="6vuhcuxhuGoeydXkPt7V-2" value="&lt;font style=&quot;font-size: 29px;&quot;&gt;IMG&lt;/font&gt;" style="rounded=1;whiteSpace=wrap;html=1;" parent="1" vertex="1">
          <mxGeometry x="420" y="90" width="830" height="195" as="geometry" />
        </mxCell>
        <mxCell id="wROLyABdkJC5FQ891Zjm-3" value="button" style="rounded=0;whiteSpace=wrap;html=1;" parent="1" vertex="1">
          <mxGeometry x="1348" y="18" width="110" height="50" as="geometry" />
        </mxCell>
        <mxCell id="wROLyABdkJC5FQ891Zjm-5" value="button" style="rounded=0;whiteSpace=wrap;html=1;" parent="1" vertex="1">
          <mxGeometry x="14" y="15" width="110" height="50" as="geometry" />
        </mxCell>
        <mxCell id="wROLyABdkJC5FQ891Zjm-6" value="button" style="rounded=0;whiteSpace=wrap;html=1;" parent="1" vertex="1">
          <mxGeometry x="140" y="15" width="110" height="50" as="geometry" />
        </mxCell>
        <mxCell id="wROLyABdkJC5FQ891Zjm-7" value="" style="rounded=1;whiteSpace=wrap;html=1;" parent="1" vertex="1">
          <mxGeometry x="242" y="352" width="1160" height="620" as="geometry" />
        </mxCell>
        <mxCell id="wROLyABdkJC5FQ891Zjm-9" value="&lt;font style=&quot;font-size: 27px;&quot;&gt;Lorem&lt;/font&gt;" style="text;html=1;align=center;verticalAlign=middle;whiteSpace=wrap;rounded=0;" parent="1" vertex="1">
          <mxGeometry x="301" y="362" width="110" height="40" as="geometry" />
        </mxCell>
        <mxCell id="wROLyABdkJC5FQ891Zjm-10" value="" style="endArrow=none;html=1;rounded=0;exitX=0.002;exitY=0.146;exitDx=0;exitDy=0;exitPerimeter=0;entryX=1;entryY=0.151;entryDx=0;entryDy=0;entryPerimeter=0;" parent="1" edge="1">
          <mxGeometry width="50" height="50" relative="1" as="geometry">
            <mxPoint x="244.32000000000016" y="407.3799999999999" as="sourcePoint" />
            <mxPoint x="1402" y="410.03" as="targetPoint" />
          </mxGeometry>
        </mxCell>
        <mxCell id="wROLyABdkJC5FQ891Zjm-12" value="" style="endArrow=none;html=1;rounded=0;exitX=0.002;exitY=0.146;exitDx=0;exitDy=0;exitPerimeter=0;entryX=1;entryY=0.151;entryDx=0;entryDy=0;entryPerimeter=0;" parent="1" edge="1">
          <mxGeometry width="50" height="50" relative="1" as="geometry">
            <mxPoint x="243" y="521" as="sourcePoint" />
            <mxPoint x="1401" y="524" as="targetPoint" />
          </mxGeometry>
        </mxCell>
        <mxCell id="wROLyABdkJC5FQ891Zjm-13" value="" style="endArrow=none;html=1;rounded=0;exitX=0.002;exitY=0.146;exitDx=0;exitDy=0;exitPerimeter=0;entryX=1;entryY=0.151;entryDx=0;entryDy=0;entryPerimeter=0;" parent="1" edge="1">
          <mxGeometry width="50" height="50" relative="1" as="geometry">
            <mxPoint x="243" y="648" as="sourcePoint" />
            <mxPoint x="1401" y="651" as="targetPoint" />
          </mxGeometry>
        </mxCell>
        <mxCell id="wROLyABdkJC5FQ891Zjm-14" value="" style="endArrow=none;html=1;rounded=0;exitX=0.002;exitY=0.146;exitDx=0;exitDy=0;exitPerimeter=0;entryX=1;entryY=0.151;entryDx=0;entryDy=0;entryPerimeter=0;" parent="1" edge="1">
          <mxGeometry width="50" height="50" relative="1" as="geometry">
            <mxPoint x="243" y="760" as="sourcePoint" />
            <mxPoint x="1401" y="763" as="targetPoint" />
          </mxGeometry>
        </mxCell>
        <mxCell id="wROLyABdkJC5FQ891Zjm-17" value="img" style="rounded=1;whiteSpace=wrap;html=1;" parent="1" vertex="1">
          <mxGeometry x="253" y="424" width="80" height="80" as="geometry" />
        </mxCell>
        <mxCell id="wROLyABdkJC5FQ891Zjm-18" value="Lorem" style="text;html=1;align=center;verticalAlign=middle;whiteSpace=wrap;rounded=0;" parent="1" vertex="1">
          <mxGeometry x="351" y="424" width="60" height="30" as="geometry" />
        </mxCell>
        <mxCell id="wROLyABdkJC5FQ891Zjm-19" value="" style="endArrow=none;html=1;rounded=0;exitX=0.002;exitY=0.146;exitDx=0;exitDy=0;exitPerimeter=0;entryX=1;entryY=0.151;entryDx=0;entryDy=0;entryPerimeter=0;" parent="1" edge="1">
          <mxGeometry width="50" height="50" relative="1" as="geometry">
            <mxPoint x="240" y="858" as="sourcePoint" />
            <mxPoint x="1398" y="861" as="targetPoint" />
          </mxGeometry>
        </mxCell>
        <mxCell id="wROLyABdkJC5FQ891Zjm-20" value="&lt;div style=&quot;font-size: 10px;&quot;&gt;&lt;br&gt;&lt;/div&gt;&lt;div style=&quot;font-size: 10px;&quot;&gt;&lt;span style=&quot;&quot;&gt;&amp;nbsp;Lorem ipsum dolor sit amet, consectetur adipiscing elit. Donec vitae.&amp;nbsp;&lt;/span&gt;&lt;br&gt;&lt;/div&gt;" style="text;html=1;align=center;verticalAlign=middle;whiteSpace=wrap;rounded=0;" parent="1" vertex="1">
          <mxGeometry x="352" y="469" width="310" height="23" as="geometry" />
        </mxCell>
        <mxCell id="-Zr1I7Wage_GJe6MA71u-2" value="Lorem" style="text;html=1;align=center;verticalAlign=middle;whiteSpace=wrap;rounded=0;" parent="1" vertex="1">
          <mxGeometry x="1082" y="434" width="60" height="30" as="geometry" />
        </mxCell>
        <mxCell id="-Zr1I7Wage_GJe6MA71u-3" value="Lorem" style="text;html=1;align=center;verticalAlign=middle;whiteSpace=wrap;rounded=0;" parent="1" vertex="1">
          <mxGeometry x="1082" y="463" width="60" height="30" as="geometry" />
        </mxCell>
        <mxCell id="-Zr1I7Wage_GJe6MA71u-4" value="Lorem" style="text;html=1;align=center;verticalAlign=middle;whiteSpace=wrap;rounded=0;" parent="1" vertex="1">
          <mxGeometry x="1135" y="434" width="60" height="30" as="geometry" />
        </mxCell>
        <mxCell id="-Zr1I7Wage_GJe6MA71u-5" value="Lorem" style="text;html=1;align=center;verticalAlign=middle;whiteSpace=wrap;rounded=0;" parent="1" vertex="1">
          <mxGeometry x="1135" y="464" width="60" height="30" as="geometry" />
        </mxCell>
        <mxCell id="-Zr1I7Wage_GJe6MA71u-6" value="" style="endArrow=none;dashed=1;html=1;dashPattern=1 3;strokeWidth=2;rounded=0;" parent="1" edge="1">
          <mxGeometry width="50" height="50" relative="1" as="geometry">
            <mxPoint x="1202" y="522" as="sourcePoint" />
            <mxPoint x="1202" y="412" as="targetPoint" />
          </mxGeometry>
        </mxCell>
        <mxCell id="-Zr1I7Wage_GJe6MA71u-8" value="&lt;br&gt;&lt;div&gt;&lt;span style=&quot;font-size: 10px;&quot;&gt;&amp;nbsp;Lorem ipsum dolor sit amet,&lt;/span&gt;&lt;br&gt;&lt;/div&gt;" style="text;html=1;align=center;verticalAlign=middle;whiteSpace=wrap;rounded=0;" parent="1" vertex="1">
          <mxGeometry x="1212" y="419" width="170" height="30" as="geometry" />
        </mxCell>
        <mxCell id="-Zr1I7Wage_GJe6MA71u-9" value="&lt;br&gt;&lt;div&gt;&lt;span style=&quot;font-size: 10px;&quot;&gt;&amp;nbsp;Lorem ipsum dolor sit amet,&lt;/span&gt;&lt;br&gt;&lt;/div&gt;" style="text;html=1;align=center;verticalAlign=middle;whiteSpace=wrap;rounded=0;" parent="1" vertex="1">
          <mxGeometry x="1213" y="449" width="179" height="30" as="geometry" />
        </mxCell>
        <mxCell id="-Zr1I7Wage_GJe6MA71u-10" value="&lt;br&gt;&lt;div&gt;&lt;span style=&quot;font-size: 10px;&quot;&gt;&amp;nbsp;Lorem ipsum dolor sit amet,&lt;/span&gt;&lt;br&gt;&lt;/div&gt;" style="text;html=1;align=center;verticalAlign=middle;whiteSpace=wrap;rounded=0;" parent="1" vertex="1">
          <mxGeometry x="1214" y="482" width="178" height="30" as="geometry" />
        </mxCell>
        <mxCell id="-Zr1I7Wage_GJe6MA71u-11" value="img" style="rounded=1;whiteSpace=wrap;html=1;" parent="1" vertex="1">
          <mxGeometry x="252" y="540" width="80" height="80" as="geometry" />
        </mxCell>
        <mxCell id="-Zr1I7Wage_GJe6MA71u-12" value="Lorem" style="text;html=1;align=center;verticalAlign=middle;whiteSpace=wrap;rounded=0;" parent="1" vertex="1">
          <mxGeometry x="350" y="540" width="60" height="30" as="geometry" />
        </mxCell>
        <mxCell id="-Zr1I7Wage_GJe6MA71u-13" value="&lt;div style=&quot;font-size: 10px;&quot;&gt;&lt;br&gt;&lt;/div&gt;&lt;div style=&quot;font-size: 10px;&quot;&gt;&lt;span style=&quot;&quot;&gt;&amp;nbsp;Lorem ipsum dolor sit amet, consectetur adipiscing elit. Donec vitae.&amp;nbsp;&lt;/span&gt;&lt;br&gt;&lt;/div&gt;" style="text;html=1;align=center;verticalAlign=middle;whiteSpace=wrap;rounded=0;" parent="1" vertex="1">
          <mxGeometry x="351" y="585" width="310" height="23" as="geometry" />
        </mxCell>
        <mxCell id="-Zr1I7Wage_GJe6MA71u-14" value="Lorem" style="text;html=1;align=center;verticalAlign=middle;whiteSpace=wrap;rounded=0;" parent="1" vertex="1">
          <mxGeometry x="1081" y="550" width="60" height="30" as="geometry" />
        </mxCell>
        <mxCell id="-Zr1I7Wage_GJe6MA71u-15" value="Lorem" style="text;html=1;align=center;verticalAlign=middle;whiteSpace=wrap;rounded=0;" parent="1" vertex="1">
          <mxGeometry x="1081" y="579" width="60" height="30" as="geometry" />
        </mxCell>
        <mxCell id="-Zr1I7Wage_GJe6MA71u-16" value="Lorem" style="text;html=1;align=center;verticalAlign=middle;whiteSpace=wrap;rounded=0;" parent="1" vertex="1">
          <mxGeometry x="1134" y="550" width="60" height="30" as="geometry" />
        </mxCell>
        <mxCell id="-Zr1I7Wage_GJe6MA71u-17" value="Lorem" style="text;html=1;align=center;verticalAlign=middle;whiteSpace=wrap;rounded=0;" parent="1" vertex="1">
          <mxGeometry x="1134" y="580" width="60" height="30" as="geometry" />
        </mxCell>
        <mxCell id="-Zr1I7Wage_GJe6MA71u-18" value="&lt;br&gt;&lt;div&gt;&lt;span style=&quot;font-size: 10px;&quot;&gt;&amp;nbsp;Lorem ipsum dolor sit amet,&lt;/span&gt;&lt;br&gt;&lt;/div&gt;" style="text;html=1;align=center;verticalAlign=middle;whiteSpace=wrap;rounded=0;" parent="1" vertex="1">
          <mxGeometry x="1211" y="535" width="170" height="30" as="geometry" />
        </mxCell>
        <mxCell id="-Zr1I7Wage_GJe6MA71u-19" value="&lt;br&gt;&lt;div&gt;&lt;span style=&quot;font-size: 10px;&quot;&gt;&amp;nbsp;Lorem ipsum dolor sit amet,&lt;/span&gt;&lt;br&gt;&lt;/div&gt;" style="text;html=1;align=center;verticalAlign=middle;whiteSpace=wrap;rounded=0;" parent="1" vertex="1">
          <mxGeometry x="1212" y="565" width="179" height="30" as="geometry" />
        </mxCell>
        <mxCell id="-Zr1I7Wage_GJe6MA71u-20" value="&lt;br&gt;&lt;div&gt;&lt;span style=&quot;font-size: 10px;&quot;&gt;&amp;nbsp;Lorem ipsum dolor sit amet,&lt;/span&gt;&lt;br&gt;&lt;/div&gt;" style="text;html=1;align=center;verticalAlign=middle;whiteSpace=wrap;rounded=0;" parent="1" vertex="1">
          <mxGeometry x="1213" y="598" width="178" height="30" as="geometry" />
        </mxCell>
        <mxCell id="-Zr1I7Wage_GJe6MA71u-21" value="img" style="rounded=1;whiteSpace=wrap;html=1;" parent="1" vertex="1">
          <mxGeometry x="254" y="661" width="80" height="80" as="geometry" />
        </mxCell>
        <mxCell id="-Zr1I7Wage_GJe6MA71u-22" value="Lorem" style="text;html=1;align=center;verticalAlign=middle;whiteSpace=wrap;rounded=0;" parent="1" vertex="1">
          <mxGeometry x="352" y="661" width="60" height="30" as="geometry" />
        </mxCell>
        <mxCell id="-Zr1I7Wage_GJe6MA71u-23" value="&lt;div style=&quot;font-size: 10px;&quot;&gt;&lt;br&gt;&lt;/div&gt;&lt;div style=&quot;font-size: 10px;&quot;&gt;&lt;span style=&quot;&quot;&gt;&amp;nbsp;Lorem ipsum dolor sit amet, consectetur adipiscing elit. Donec vitae.&amp;nbsp;&lt;/span&gt;&lt;br&gt;&lt;/div&gt;" style="text;html=1;align=center;verticalAlign=middle;whiteSpace=wrap;rounded=0;" parent="1" vertex="1">
          <mxGeometry x="353" y="706" width="310" height="23" as="geometry" />
        </mxCell>
        <mxCell id="-Zr1I7Wage_GJe6MA71u-24" value="Lorem" style="text;html=1;align=center;verticalAlign=middle;whiteSpace=wrap;rounded=0;" parent="1" vertex="1">
          <mxGeometry x="1083" y="671" width="60" height="30" as="geometry" />
        </mxCell>
        <mxCell id="-Zr1I7Wage_GJe6MA71u-25" value="Lorem" style="text;html=1;align=center;verticalAlign=middle;whiteSpace=wrap;rounded=0;" parent="1" vertex="1">
          <mxGeometry x="1083" y="700" width="60" height="30" as="geometry" />
        </mxCell>
        <mxCell id="-Zr1I7Wage_GJe6MA71u-26" value="Lorem" style="text;html=1;align=center;verticalAlign=middle;whiteSpace=wrap;rounded=0;" parent="1" vertex="1">
          <mxGeometry x="1136" y="671" width="60" height="30" as="geometry" />
        </mxCell>
        <mxCell id="-Zr1I7Wage_GJe6MA71u-27" value="Lorem" style="text;html=1;align=center;verticalAlign=middle;whiteSpace=wrap;rounded=0;" parent="1" vertex="1">
          <mxGeometry x="1136" y="701" width="60" height="30" as="geometry" />
        </mxCell>
        <mxCell id="-Zr1I7Wage_GJe6MA71u-28" value="&lt;br&gt;&lt;div&gt;&lt;span style=&quot;font-size: 10px;&quot;&gt;&amp;nbsp;Lorem ipsum dolor sit amet,&lt;/span&gt;&lt;br&gt;&lt;/div&gt;" style="text;html=1;align=center;verticalAlign=middle;whiteSpace=wrap;rounded=0;" parent="1" vertex="1">
          <mxGeometry x="1213" y="656" width="170" height="30" as="geometry" />
        </mxCell>
        <mxCell id="-Zr1I7Wage_GJe6MA71u-29" value="&lt;br&gt;&lt;div&gt;&lt;span style=&quot;font-size: 10px;&quot;&gt;&amp;nbsp;Lorem ipsum dolor sit amet,&lt;/span&gt;&lt;br&gt;&lt;/div&gt;" style="text;html=1;align=center;verticalAlign=middle;whiteSpace=wrap;rounded=0;" parent="1" vertex="1">
          <mxGeometry x="1214" y="686" width="179" height="30" as="geometry" />
        </mxCell>
        <mxCell id="-Zr1I7Wage_GJe6MA71u-30" value="&lt;br&gt;&lt;div&gt;&lt;span style=&quot;font-size: 10px;&quot;&gt;&amp;nbsp;Lorem ipsum dolor sit amet,&lt;/span&gt;&lt;br&gt;&lt;/div&gt;" style="text;html=1;align=center;verticalAlign=middle;whiteSpace=wrap;rounded=0;" parent="1" vertex="1">
          <mxGeometry x="1215" y="719" width="178" height="30" as="geometry" />
        </mxCell>
        <mxCell id="-Zr1I7Wage_GJe6MA71u-31" value="img" style="rounded=1;whiteSpace=wrap;html=1;" parent="1" vertex="1">
          <mxGeometry x="253" y="767" width="80" height="80" as="geometry" />
        </mxCell>
        <mxCell id="-Zr1I7Wage_GJe6MA71u-32" value="Lorem" style="text;html=1;align=center;verticalAlign=middle;whiteSpace=wrap;rounded=0;" parent="1" vertex="1">
          <mxGeometry x="351" y="767" width="60" height="30" as="geometry" />
        </mxCell>
        <mxCell id="-Zr1I7Wage_GJe6MA71u-33" value="&lt;div style=&quot;font-size: 10px;&quot;&gt;&lt;br&gt;&lt;/div&gt;&lt;div style=&quot;font-size: 10px;&quot;&gt;&lt;span style=&quot;&quot;&gt;&amp;nbsp;Lorem ipsum dolor sit amet, consectetur adipiscing elit. Donec vitae.&amp;nbsp;&lt;/span&gt;&lt;br&gt;&lt;/div&gt;" style="text;html=1;align=center;verticalAlign=middle;whiteSpace=wrap;rounded=0;" parent="1" vertex="1">
          <mxGeometry x="352" y="812" width="310" height="23" as="geometry" />
        </mxCell>
        <mxCell id="-Zr1I7Wage_GJe6MA71u-34" value="Lorem" style="text;html=1;align=center;verticalAlign=middle;whiteSpace=wrap;rounded=0;" parent="1" vertex="1">
          <mxGeometry x="1082" y="777" width="60" height="30" as="geometry" />
        </mxCell>
        <mxCell id="-Zr1I7Wage_GJe6MA71u-35" value="Lorem" style="text;html=1;align=center;verticalAlign=middle;whiteSpace=wrap;rounded=0;" parent="1" vertex="1">
          <mxGeometry x="1082" y="806" width="60" height="30" as="geometry" />
        </mxCell>
        <mxCell id="-Zr1I7Wage_GJe6MA71u-36" value="Lorem" style="text;html=1;align=center;verticalAlign=middle;whiteSpace=wrap;rounded=0;" parent="1" vertex="1">
          <mxGeometry x="1135" y="777" width="60" height="30" as="geometry" />
        </mxCell>
        <mxCell id="-Zr1I7Wage_GJe6MA71u-37" value="Lorem" style="text;html=1;align=center;verticalAlign=middle;whiteSpace=wrap;rounded=0;" parent="1" vertex="1">
          <mxGeometry x="1135" y="807" width="60" height="30" as="geometry" />
        </mxCell>
        <mxCell id="-Zr1I7Wage_GJe6MA71u-38" value="&lt;br&gt;&lt;div&gt;&lt;span style=&quot;font-size: 10px;&quot;&gt;&amp;nbsp;Lorem ipsum dolor sit amet,&lt;/span&gt;&lt;br&gt;&lt;/div&gt;" style="text;html=1;align=center;verticalAlign=middle;whiteSpace=wrap;rounded=0;" parent="1" vertex="1">
          <mxGeometry x="1212" y="762" width="170" height="30" as="geometry" />
        </mxCell>
        <mxCell id="-Zr1I7Wage_GJe6MA71u-39" value="&lt;br&gt;&lt;div&gt;&lt;span style=&quot;font-size: 10px;&quot;&gt;&amp;nbsp;Lorem ipsum dolor sit amet,&lt;/span&gt;&lt;br&gt;&lt;/div&gt;" style="text;html=1;align=center;verticalAlign=middle;whiteSpace=wrap;rounded=0;" parent="1" vertex="1">
          <mxGeometry x="1213" y="792" width="179" height="30" as="geometry" />
        </mxCell>
        <mxCell id="-Zr1I7Wage_GJe6MA71u-40" value="&lt;br&gt;&lt;div&gt;&lt;span style=&quot;font-size: 10px;&quot;&gt;&amp;nbsp;Lorem ipsum dolor sit amet,&lt;/span&gt;&lt;br&gt;&lt;/div&gt;" style="text;html=1;align=center;verticalAlign=middle;whiteSpace=wrap;rounded=0;" parent="1" vertex="1">
          <mxGeometry x="1214" y="825" width="178" height="30" as="geometry" />
        </mxCell>
        <mxCell id="-Zr1I7Wage_GJe6MA71u-41" value="img" style="rounded=1;whiteSpace=wrap;html=1;" parent="1" vertex="1">
          <mxGeometry x="255" y="872" width="80" height="80" as="geometry" />
        </mxCell>
        <mxCell id="-Zr1I7Wage_GJe6MA71u-42" value="Lorem" style="text;html=1;align=center;verticalAlign=middle;whiteSpace=wrap;rounded=0;" parent="1" vertex="1">
          <mxGeometry x="353" y="872" width="60" height="30" as="geometry" />
        </mxCell>
        <mxCell id="-Zr1I7Wage_GJe6MA71u-43" value="&lt;div style=&quot;font-size: 10px;&quot;&gt;&lt;br&gt;&lt;/div&gt;&lt;div style=&quot;font-size: 10px;&quot;&gt;&lt;span style=&quot;&quot;&gt;&amp;nbsp;Lorem ipsum dolor sit amet, consectetur adipiscing elit. Donec vitae.&amp;nbsp;&lt;/span&gt;&lt;br&gt;&lt;/div&gt;" style="text;html=1;align=center;verticalAlign=middle;whiteSpace=wrap;rounded=0;" parent="1" vertex="1">
          <mxGeometry x="354" y="917" width="310" height="23" as="geometry" />
        </mxCell>
        <mxCell id="-Zr1I7Wage_GJe6MA71u-44" value="Lorem" style="text;html=1;align=center;verticalAlign=middle;whiteSpace=wrap;rounded=0;" parent="1" vertex="1">
          <mxGeometry x="1084" y="882" width="60" height="30" as="geometry" />
        </mxCell>
        <mxCell id="-Zr1I7Wage_GJe6MA71u-45" value="Lorem" style="text;html=1;align=center;verticalAlign=middle;whiteSpace=wrap;rounded=0;" parent="1" vertex="1">
          <mxGeometry x="1084" y="911" width="60" height="30" as="geometry" />
        </mxCell>
        <mxCell id="-Zr1I7Wage_GJe6MA71u-46" value="Lorem" style="text;html=1;align=center;verticalAlign=middle;whiteSpace=wrap;rounded=0;" parent="1" vertex="1">
          <mxGeometry x="1137" y="882" width="60" height="30" as="geometry" />
        </mxCell>
        <mxCell id="-Zr1I7Wage_GJe6MA71u-47" value="Lorem" style="text;html=1;align=center;verticalAlign=middle;whiteSpace=wrap;rounded=0;" parent="1" vertex="1">
          <mxGeometry x="1137" y="912" width="60" height="30" as="geometry" />
        </mxCell>
        <mxCell id="-Zr1I7Wage_GJe6MA71u-48" value="&lt;br&gt;&lt;div&gt;&lt;span style=&quot;font-size: 10px;&quot;&gt;&amp;nbsp;Lorem ipsum dolor sit amet,&lt;/span&gt;&lt;br&gt;&lt;/div&gt;" style="text;html=1;align=center;verticalAlign=middle;whiteSpace=wrap;rounded=0;" parent="1" vertex="1">
          <mxGeometry x="1214" y="867" width="170" height="30" as="geometry" />
        </mxCell>
        <mxCell id="-Zr1I7Wage_GJe6MA71u-49" value="&lt;br&gt;&lt;div&gt;&lt;span style=&quot;font-size: 10px;&quot;&gt;&amp;nbsp;Lorem ipsum dolor sit amet,&lt;/span&gt;&lt;br&gt;&lt;/div&gt;" style="text;html=1;align=center;verticalAlign=middle;whiteSpace=wrap;rounded=0;" parent="1" vertex="1">
          <mxGeometry x="1215" y="897" width="179" height="30" as="geometry" />
        </mxCell>
        <mxCell id="-Zr1I7Wage_GJe6MA71u-50" value="&lt;br&gt;&lt;div&gt;&lt;span style=&quot;font-size: 10px;&quot;&gt;&amp;nbsp;Lorem ipsum dolor sit amet,&lt;/span&gt;&lt;br&gt;&lt;/div&gt;" style="text;html=1;align=center;verticalAlign=middle;whiteSpace=wrap;rounded=0;" parent="1" vertex="1">
          <mxGeometry x="1216" y="930" width="178" height="30" as="geometry" />
        </mxCell>
        <mxCell id="-Zr1I7Wage_GJe6MA71u-51" value="" style="endArrow=none;dashed=1;html=1;dashPattern=1 3;strokeWidth=2;rounded=0;" parent="1" edge="1">
          <mxGeometry width="50" height="50" relative="1" as="geometry">
            <mxPoint x="1202" y="640" as="sourcePoint" />
            <mxPoint x="1202" y="530" as="targetPoint" />
          </mxGeometry>
        </mxCell>
        <mxCell id="-Zr1I7Wage_GJe6MA71u-52" value="" style="endArrow=none;dashed=1;html=1;dashPattern=1 3;strokeWidth=2;rounded=0;" parent="1" edge="1">
          <mxGeometry width="50" height="50" relative="1" as="geometry">
            <mxPoint x="1203" y="759" as="sourcePoint" />
            <mxPoint x="1203" y="649" as="targetPoint" />
          </mxGeometry>
        </mxCell>
        <mxCell id="-Zr1I7Wage_GJe6MA71u-53" value="" style="endArrow=none;dashed=1;html=1;dashPattern=1 3;strokeWidth=2;rounded=0;" parent="1" edge="1">
          <mxGeometry width="50" height="50" relative="1" as="geometry">
            <mxPoint x="1204" y="864" as="sourcePoint" />
            <mxPoint x="1204" y="754" as="targetPoint" />
          </mxGeometry>
        </mxCell>
        <mxCell id="-Zr1I7Wage_GJe6MA71u-54" value="" style="endArrow=none;dashed=1;html=1;dashPattern=1 3;strokeWidth=2;rounded=0;" parent="1" edge="1">
          <mxGeometry width="50" height="50" relative="1" as="geometry">
            <mxPoint x="1202" y="967" as="sourcePoint" />
            <mxPoint x="1202" y="857" as="targetPoint" />
          </mxGeometry>
        </mxCell>
        <mxCell id="MxAxyKrA-1lqvHq7m8fJ-2" value="" style="rounded=1;whiteSpace=wrap;html=1;" parent="1" vertex="1">
          <mxGeometry x="220" y="297" width="1213" height="40" as="geometry" />
        </mxCell>
        <mxCell id="bP_S9GaljrFqjqJZBqHO-3" value="Lorem" style="text;html=1;align=center;verticalAlign=middle;whiteSpace=wrap;rounded=0;" vertex="1" parent="1">
          <mxGeometry x="220" y="302" width="70" height="30" as="geometry" />
        </mxCell>
        <mxCell id="bP_S9GaljrFqjqJZBqHO-4" value="icon" style="rounded=1;whiteSpace=wrap;html=1;" vertex="1" parent="1">
          <mxGeometry x="272" y="360" width="40" height="40" as="geometry" />
        </mxCell>
        <mxCell id="bP_S9GaljrFqjqJZBqHO-5" value="" style="rounded=1;whiteSpace=wrap;html=1;" vertex="1" parent="1">
          <mxGeometry x="242" y="1000" width="1158" height="200" as="geometry" />
        </mxCell>
        <mxCell id="bP_S9GaljrFqjqJZBqHO-7" value="&lt;font style=&quot;font-size: 17px;&quot;&gt;Lorem&lt;/font&gt;" style="text;html=1;align=center;verticalAlign=middle;whiteSpace=wrap;rounded=0;" vertex="1" parent="1">
          <mxGeometry x="495" y="1022" width="110" height="40" as="geometry" />
        </mxCell>
        <mxCell id="bP_S9GaljrFqjqJZBqHO-8" value="icon" style="rounded=1;whiteSpace=wrap;html=1;" vertex="1" parent="1">
          <mxGeometry x="470" y="1020" width="40" height="40" as="geometry" />
        </mxCell>
        <mxCell id="bP_S9GaljrFqjqJZBqHO-9" value="&lt;font style=&quot;font-size: 17px;&quot;&gt;Lorem&lt;/font&gt;" style="text;html=1;align=center;verticalAlign=middle;whiteSpace=wrap;rounded=0;" vertex="1" parent="1">
          <mxGeometry x="496" y="1081" width="110" height="40" as="geometry" />
        </mxCell>
        <mxCell id="bP_S9GaljrFqjqJZBqHO-10" value="icon" style="rounded=1;whiteSpace=wrap;html=1;" vertex="1" parent="1">
          <mxGeometry x="470" y="1079" width="40" height="40" as="geometry" />
        </mxCell>
        <mxCell id="bP_S9GaljrFqjqJZBqHO-11" value="&lt;font style=&quot;font-size: 17px;&quot;&gt;Lorem&lt;/font&gt;" style="text;html=1;align=center;verticalAlign=middle;whiteSpace=wrap;rounded=0;" vertex="1" parent="1">
          <mxGeometry x="495" y="1142" width="110" height="40" as="geometry" />
        </mxCell>
        <mxCell id="bP_S9GaljrFqjqJZBqHO-12" value="icon" style="rounded=1;whiteSpace=wrap;html=1;" vertex="1" parent="1">
          <mxGeometry x="469" y="1140" width="40" height="40" as="geometry" />
        </mxCell>
        <mxCell id="bP_S9GaljrFqjqJZBqHO-13" value="&lt;div style=&quot;font-size: 10px;&quot;&gt;&lt;br&gt;&lt;/div&gt;&lt;div style=&quot;font-size: 10px;&quot;&gt;&lt;span style=&quot;&quot;&gt;&amp;nbsp;Lorem ipsum dolor sit amet, consectetur adipiscing elit. Donec vitae.&amp;nbsp;&lt;/span&gt;&lt;br&gt;&lt;/div&gt;" style="text;html=1;align=center;verticalAlign=middle;whiteSpace=wrap;rounded=0;" vertex="1" parent="1">
          <mxGeometry x="980" y="1030.5" width="310" height="23" as="geometry" />
        </mxCell>
        <mxCell id="bP_S9GaljrFqjqJZBqHO-14" value="&lt;font style=&quot;font-size: 17px;&quot;&gt;Lorem&lt;/font&gt;" style="text;html=1;align=center;verticalAlign=middle;whiteSpace=wrap;rounded=0;" vertex="1" parent="1">
          <mxGeometry x="1005" y="1066" width="110" height="40" as="geometry" />
        </mxCell>
        <mxCell id="bP_S9GaljrFqjqJZBqHO-15" value="icon" style="rounded=1;whiteSpace=wrap;html=1;" vertex="1" parent="1">
          <mxGeometry x="980" y="1064" width="40" height="40" as="geometry" />
        </mxCell>
      </root>
    </mxGraphModel>
  </diagram>
  <diagram id="uhV6TFensFNsRj4SsMc7" name="sub-forum">
    <mxGraphModel dx="1687" dy="1026" grid="1" gridSize="10" guides="1" tooltips="1" connect="1" arrows="1" fold="1" page="1" pageScale="1" pageWidth="1600" pageHeight="900" math="0" shadow="0">
      <root>
        <mxCell id="0" />
        <mxCell id="1" parent="0" />
        <mxCell id="PZSG-Z4_cVcCYPOV1-Oj-81" value="button" style="rounded=0;whiteSpace=wrap;html=1;" vertex="1" parent="1">
          <mxGeometry x="1482" y="28" width="110" height="50" as="geometry" />
        </mxCell>
        <mxCell id="PZSG-Z4_cVcCYPOV1-Oj-82" value="&lt;font style=&quot;font-size: 29px;&quot;&gt;IMG&lt;/font&gt;" style="rounded=1;whiteSpace=wrap;html=1;" vertex="1" parent="1">
          <mxGeometry x="430" y="100" width="830" height="195" as="geometry" />
        </mxCell>
        <mxCell id="PZSG-Z4_cVcCYPOV1-Oj-83" value="button" style="rounded=0;whiteSpace=wrap;html=1;" vertex="1" parent="1">
          <mxGeometry x="1358" y="28" width="110" height="50" as="geometry" />
        </mxCell>
        <mxCell id="PZSG-Z4_cVcCYPOV1-Oj-84" value="button" style="rounded=0;whiteSpace=wrap;html=1;" vertex="1" parent="1">
          <mxGeometry x="24" y="25" width="110" height="50" as="geometry" />
        </mxCell>
        <mxCell id="PZSG-Z4_cVcCYPOV1-Oj-85" value="button" style="rounded=0;whiteSpace=wrap;html=1;" vertex="1" parent="1">
          <mxGeometry x="150" y="25" width="110" height="50" as="geometry" />
        </mxCell>
        <mxCell id="PZSG-Z4_cVcCYPOV1-Oj-86" value="" style="rounded=1;whiteSpace=wrap;html=1;" vertex="1" parent="1">
          <mxGeometry x="252" y="362" width="1160" height="388" as="geometry" />
        </mxCell>
        <mxCell id="PZSG-Z4_cVcCYPOV1-Oj-87" value="&lt;font style=&quot;font-size: 27px;&quot;&gt;Lorem&lt;/font&gt;" style="text;html=1;align=center;verticalAlign=middle;whiteSpace=wrap;rounded=0;" vertex="1" parent="1">
          <mxGeometry x="311" y="377" width="110" height="40" as="geometry" />
        </mxCell>
        <mxCell id="PZSG-Z4_cVcCYPOV1-Oj-148" value="" style="rounded=1;whiteSpace=wrap;html=1;" vertex="1" parent="1">
          <mxGeometry x="230" y="307" width="1213" height="40" as="geometry" />
        </mxCell>
        <mxCell id="PZSG-Z4_cVcCYPOV1-Oj-149" value="Lorem -&amp;gt; Lorem" style="text;html=1;align=center;verticalAlign=middle;whiteSpace=wrap;rounded=0;" vertex="1" parent="1">
          <mxGeometry x="230" y="312" width="130" height="30" as="geometry" />
        </mxCell>
        <mxCell id="PZSG-Z4_cVcCYPOV1-Oj-150" value="icon" style="rounded=1;whiteSpace=wrap;html=1;" vertex="1" parent="1">
          <mxGeometry x="282" y="376" width="40" height="40" as="geometry" />
        </mxCell>
        <mxCell id="PZSG-Z4_cVcCYPOV1-Oj-151" value="" style="rounded=1;whiteSpace=wrap;html=1;" vertex="1" parent="1">
          <mxGeometry x="252" y="783" width="1158" height="200" as="geometry" />
        </mxCell>
        <mxCell id="PZSG-Z4_cVcCYPOV1-Oj-152" value="&lt;font style=&quot;font-size: 17px;&quot;&gt;Lorem&lt;/font&gt;" style="text;html=1;align=center;verticalAlign=middle;whiteSpace=wrap;rounded=0;" vertex="1" parent="1">
          <mxGeometry x="505" y="805" width="110" height="40" as="geometry" />
        </mxCell>
        <mxCell id="PZSG-Z4_cVcCYPOV1-Oj-153" value="icon" style="rounded=1;whiteSpace=wrap;html=1;" vertex="1" parent="1">
          <mxGeometry x="480" y="803" width="40" height="40" as="geometry" />
        </mxCell>
        <mxCell id="PZSG-Z4_cVcCYPOV1-Oj-154" value="&lt;font style=&quot;font-size: 17px;&quot;&gt;Lorem&lt;/font&gt;" style="text;html=1;align=center;verticalAlign=middle;whiteSpace=wrap;rounded=0;" vertex="1" parent="1">
          <mxGeometry x="506" y="864" width="110" height="40" as="geometry" />
        </mxCell>
        <mxCell id="PZSG-Z4_cVcCYPOV1-Oj-155" value="icon" style="rounded=1;whiteSpace=wrap;html=1;" vertex="1" parent="1">
          <mxGeometry x="480" y="862" width="40" height="40" as="geometry" />
        </mxCell>
        <mxCell id="PZSG-Z4_cVcCYPOV1-Oj-156" value="&lt;font style=&quot;font-size: 17px;&quot;&gt;Lorem&lt;/font&gt;" style="text;html=1;align=center;verticalAlign=middle;whiteSpace=wrap;rounded=0;" vertex="1" parent="1">
          <mxGeometry x="505" y="925" width="110" height="40" as="geometry" />
        </mxCell>
        <mxCell id="PZSG-Z4_cVcCYPOV1-Oj-157" value="icon" style="rounded=1;whiteSpace=wrap;html=1;" vertex="1" parent="1">
          <mxGeometry x="479" y="923" width="40" height="40" as="geometry" />
        </mxCell>
        <mxCell id="PZSG-Z4_cVcCYPOV1-Oj-158" value="&lt;div style=&quot;font-size: 10px;&quot;&gt;&lt;br&gt;&lt;/div&gt;&lt;div style=&quot;font-size: 10px;&quot;&gt;&lt;span style=&quot;&quot;&gt;&amp;nbsp;Lorem ipsum dolor sit amet, consectetur adipiscing elit. Donec vitae.&amp;nbsp;&lt;/span&gt;&lt;br&gt;&lt;/div&gt;" style="text;html=1;align=center;verticalAlign=middle;whiteSpace=wrap;rounded=0;" vertex="1" parent="1">
          <mxGeometry x="990" y="813.5" width="310" height="23" as="geometry" />
        </mxCell>
        <mxCell id="PZSG-Z4_cVcCYPOV1-Oj-159" value="&lt;font style=&quot;font-size: 17px;&quot;&gt;Lorem&lt;/font&gt;" style="text;html=1;align=center;verticalAlign=middle;whiteSpace=wrap;rounded=0;" vertex="1" parent="1">
          <mxGeometry x="1015" y="849" width="110" height="40" as="geometry" />
        </mxCell>
        <mxCell id="PZSG-Z4_cVcCYPOV1-Oj-160" value="icon" style="rounded=1;whiteSpace=wrap;html=1;" vertex="1" parent="1">
          <mxGeometry x="990" y="847" width="40" height="40" as="geometry" />
        </mxCell>
        <mxCell id="PZSG-Z4_cVcCYPOV1-Oj-161" value="&lt;div style=&quot;font-size: 10px;&quot;&gt;&lt;br&gt;&lt;/div&gt;&lt;div style=&quot;font-size: 10px;&quot;&gt;&lt;span style=&quot;&quot;&gt;&amp;nbsp;Lorem ipsum dolor sit amet, consectetur adipiscing elit. Donec vitae.&amp;nbsp;&lt;/span&gt;&lt;br&gt;&lt;/div&gt;" style="text;html=1;align=center;verticalAlign=middle;whiteSpace=wrap;rounded=0;" vertex="1" parent="1">
          <mxGeometry x="260" y="417" width="310" height="23" as="geometry" />
        </mxCell>
        <mxCell id="PZSG-Z4_cVcCYPOV1-Oj-162" value="" style="endArrow=none;html=1;rounded=0;entryX=0.999;entryY=0.179;entryDx=0;entryDy=0;entryPerimeter=0;exitX=0.004;exitY=0.184;exitDx=0;exitDy=0;exitPerimeter=0;" edge="1" parent="1">
          <mxGeometry width="50" height="50" relative="1" as="geometry">
            <mxPoint x="256.6399999999999" y="463.08000000000015" as="sourcePoint" />
            <mxPoint x="1410.8399999999997" y="459.98" as="targetPoint" />
          </mxGeometry>
        </mxCell>
        <mxCell id="PZSG-Z4_cVcCYPOV1-Oj-163" value="Lorem" style="rounded=0;whiteSpace=wrap;html=1;" vertex="1" parent="1">
          <mxGeometry x="270" y="480" width="80" height="40" as="geometry" />
        </mxCell>
        <mxCell id="PZSG-Z4_cVcCYPOV1-Oj-164" value="" style="endArrow=none;html=1;rounded=0;entryX=1;entryY=0.325;entryDx=0;entryDy=0;entryPerimeter=0;exitX=-0.001;exitY=0.329;exitDx=0;exitDy=0;exitPerimeter=0;" edge="1" parent="1">
          <mxGeometry width="50" height="50" relative="1" as="geometry">
            <mxPoint x="250.8399999999997" y="562.232" as="sourcePoint" />
            <mxPoint x="1411.9999999999995" y="560.6000000000001" as="targetPoint" />
          </mxGeometry>
        </mxCell>
        <mxCell id="PZSG-Z4_cVcCYPOV1-Oj-165" value="" style="endArrow=none;html=1;rounded=0;entryX=1;entryY=0.325;entryDx=0;entryDy=0;entryPerimeter=0;exitX=-0.001;exitY=0.329;exitDx=0;exitDy=0;exitPerimeter=0;" edge="1" parent="1">
          <mxGeometry width="50" height="50" relative="1" as="geometry">
            <mxPoint x="252" y="606" as="sourcePoint" />
            <mxPoint x="1413" y="604" as="targetPoint" />
          </mxGeometry>
        </mxCell>
        <mxCell id="PZSG-Z4_cVcCYPOV1-Oj-166" value="Lorem" style="text;html=1;align=center;verticalAlign=middle;whiteSpace=wrap;rounded=0;" vertex="1" parent="1">
          <mxGeometry x="272" y="570" width="60" height="30" as="geometry" />
        </mxCell>
        <mxCell id="PZSG-Z4_cVcCYPOV1-Oj-167" value="Lorem" style="text;html=1;align=center;verticalAlign=middle;whiteSpace=wrap;rounded=0;" vertex="1" parent="1">
          <mxGeometry x="714" y="570" width="60" height="30" as="geometry" />
        </mxCell>
        <mxCell id="PZSG-Z4_cVcCYPOV1-Oj-168" value="Lorem" style="text;html=1;align=center;verticalAlign=middle;whiteSpace=wrap;rounded=0;" vertex="1" parent="1">
          <mxGeometry x="994" y="570" width="60" height="30" as="geometry" />
        </mxCell>
        <mxCell id="PZSG-Z4_cVcCYPOV1-Oj-169" value="Lorem" style="text;html=1;align=center;verticalAlign=middle;whiteSpace=wrap;rounded=0;" vertex="1" parent="1">
          <mxGeometry x="1250" y="570" width="60" height="30" as="geometry" />
        </mxCell>
        <mxCell id="PZSG-Z4_cVcCYPOV1-Oj-170" value="" style="endArrow=none;html=1;rounded=0;entryX=1;entryY=0.325;entryDx=0;entryDy=0;entryPerimeter=0;exitX=-0.001;exitY=0.329;exitDx=0;exitDy=0;exitPerimeter=0;" edge="1" parent="1">
          <mxGeometry width="50" height="50" relative="1" as="geometry">
            <mxPoint x="252" y="698" as="sourcePoint" />
            <mxPoint x="1413" y="696" as="targetPoint" />
          </mxGeometry>
        </mxCell>
        <mxCell id="PZSG-Z4_cVcCYPOV1-Oj-171" value="&lt;div style=&quot;font-size: 10px;&quot;&gt;&lt;br&gt;&lt;/div&gt;&lt;div style=&quot;font-size: 10px;&quot;&gt;&lt;span style=&quot;&quot;&gt;&amp;nbsp;Lorem ipsum dolor sit amet, consectetur adipiscing elit. Donec vitae.&amp;nbsp;&lt;/span&gt;&lt;br&gt;&lt;/div&gt;" style="text;html=1;align=center;verticalAlign=middle;whiteSpace=wrap;rounded=0;" vertex="1" parent="1">
          <mxGeometry x="260" y="620" width="310" height="23" as="geometry" />
        </mxCell>
        <mxCell id="PZSG-Z4_cVcCYPOV1-Oj-172" value="&lt;div style=&quot;font-size: 10px;&quot;&gt;&lt;br&gt;&lt;/div&gt;&lt;div style=&quot;font-size: 10px;&quot;&gt;&lt;span style=&quot;&quot;&gt;&amp;nbsp;Lorem ipsum dolor sit amet, consectetur adipiscing elit. Donec vitae.&amp;nbsp;&lt;/span&gt;&lt;br&gt;&lt;/div&gt;" style="text;html=1;align=center;verticalAlign=middle;whiteSpace=wrap;rounded=0;" vertex="1" parent="1">
          <mxGeometry x="260" y="649" width="310" height="23" as="geometry" />
        </mxCell>
        <mxCell id="PZSG-Z4_cVcCYPOV1-Oj-174" value="Lorem" style="text;html=1;align=center;verticalAlign=middle;whiteSpace=wrap;rounded=0;" vertex="1" parent="1">
          <mxGeometry x="708" y="619" width="60" height="30" as="geometry" />
        </mxCell>
        <mxCell id="PZSG-Z4_cVcCYPOV1-Oj-175" value="Lorem" style="text;html=1;align=center;verticalAlign=middle;whiteSpace=wrap;rounded=0;" vertex="1" parent="1">
          <mxGeometry x="707" y="648" width="60" height="30" as="geometry" />
        </mxCell>
        <mxCell id="PZSG-Z4_cVcCYPOV1-Oj-176" value="Lorem" style="text;html=1;align=center;verticalAlign=middle;whiteSpace=wrap;rounded=0;" vertex="1" parent="1">
          <mxGeometry x="994" y="616.5" width="60" height="30" as="geometry" />
        </mxCell>
        <mxCell id="PZSG-Z4_cVcCYPOV1-Oj-177" value="Lorem" style="text;html=1;align=center;verticalAlign=middle;whiteSpace=wrap;rounded=0;" vertex="1" parent="1">
          <mxGeometry x="994" y="646.5" width="60" height="30" as="geometry" />
        </mxCell>
        <mxCell id="PZSG-Z4_cVcCYPOV1-Oj-178" value="Lorem" style="text;html=1;align=center;verticalAlign=middle;whiteSpace=wrap;rounded=0;" vertex="1" parent="1">
          <mxGeometry x="1250" y="613" width="60" height="30" as="geometry" />
        </mxCell>
        <mxCell id="PZSG-Z4_cVcCYPOV1-Oj-179" value="Lorem" style="text;html=1;align=center;verticalAlign=middle;whiteSpace=wrap;rounded=0;" vertex="1" parent="1">
          <mxGeometry x="1250" y="646.5" width="60" height="30" as="geometry" />
        </mxCell>
        <mxCell id="PZSG-Z4_cVcCYPOV1-Oj-180" value="" style="endArrow=none;dashed=1;html=1;rounded=0;exitX=0;exitY=0.75;exitDx=0;exitDy=0;entryX=1.001;entryY=0.728;entryDx=0;entryDy=0;entryPerimeter=0;" edge="1" parent="1" source="PZSG-Z4_cVcCYPOV1-Oj-86" target="PZSG-Z4_cVcCYPOV1-Oj-86">
          <mxGeometry width="50" height="50" relative="1" as="geometry">
            <mxPoint x="770" y="730" as="sourcePoint" />
            <mxPoint x="1450" y="630" as="targetPoint" />
          </mxGeometry>
        </mxCell>
      </root>
    </mxGraphModel>
  </diagram>
  <diagram id="mF-HkoeDHEqT9NXbzCan" name="posts">
    <mxGraphModel dx="1793" dy="1090" grid="1" gridSize="10" guides="1" tooltips="1" connect="1" arrows="1" fold="1" page="1" pageScale="1" pageWidth="1600" pageHeight="900" math="0" shadow="0">
      <root>
        <mxCell id="0" />
        <mxCell id="1" parent="0" />
        <mxCell id="X2Rvx23HxoEGPoxORq-C-1" value="button" style="rounded=0;whiteSpace=wrap;html=1;" parent="1" vertex="1">
          <mxGeometry x="1472" y="14" width="110" height="50" as="geometry" />
        </mxCell>
        <mxCell id="X2Rvx23HxoEGPoxORq-C-2" value="&lt;font style=&quot;font-size: 29px;&quot;&gt;IMG&lt;/font&gt;" style="rounded=1;whiteSpace=wrap;html=1;" parent="1" vertex="1">
          <mxGeometry x="420" y="86" width="830" height="195" as="geometry" />
        </mxCell>
        <mxCell id="X2Rvx23HxoEGPoxORq-C-3" value="button" style="rounded=0;whiteSpace=wrap;html=1;" parent="1" vertex="1">
          <mxGeometry x="1348" y="14" width="110" height="50" as="geometry" />
        </mxCell>
        <mxCell id="X2Rvx23HxoEGPoxORq-C-4" value="button" style="rounded=0;whiteSpace=wrap;html=1;" parent="1" vertex="1">
          <mxGeometry x="14" y="11" width="110" height="50" as="geometry" />
        </mxCell>
        <mxCell id="X2Rvx23HxoEGPoxORq-C-5" value="button" style="rounded=0;whiteSpace=wrap;html=1;" parent="1" vertex="1">
          <mxGeometry x="140" y="11" width="110" height="50" as="geometry" />
        </mxCell>
        <mxCell id="tA_WP59gzqtfs4d5mopg-2" value="" style="rounded=0;whiteSpace=wrap;html=1;" parent="1" vertex="1">
          <mxGeometry x="190" y="360" width="1350" height="1200" as="geometry" />
        </mxCell>
        <mxCell id="tA_WP59gzqtfs4d5mopg-3" value="" style="endArrow=none;html=1;rounded=0;entryX=1.002;entryY=0.088;entryDx=0;entryDy=0;entryPerimeter=0;exitX=0;exitY=1;exitDx=0;exitDy=0;" parent="1" edge="1" source="tA_WP59gzqtfs4d5mopg-4">
          <mxGeometry width="50" height="50" relative="1" as="geometry">
            <mxPoint x="81.45999999999981" y="412.79999999999995" as="sourcePoint" />
            <mxPoint x="1542.9199999999996" y="405.5999999999999" as="targetPoint" />
          </mxGeometry>
        </mxCell>
        <mxCell id="tA_WP59gzqtfs4d5mopg-4" value="&lt;font style=&quot;font-size: 23px;&quot;&gt;Lorem&lt;/font&gt;" style="text;html=1;align=center;verticalAlign=middle;whiteSpace=wrap;rounded=0;" parent="1" vertex="1">
          <mxGeometry x="190" y="365" width="99" height="50" as="geometry" />
        </mxCell>
        <mxCell id="tA_WP59gzqtfs4d5mopg-6" value="" style="rounded=0;whiteSpace=wrap;html=1;" parent="1" vertex="1">
          <mxGeometry x="221" y="430" width="280" height="530" as="geometry" />
        </mxCell>
        <mxCell id="tA_WP59gzqtfs4d5mopg-7" value="&lt;font style=&quot;font-size: 33px;&quot;&gt;IMG&lt;/font&gt;" style="whiteSpace=wrap;html=1;aspect=fixed;" parent="1" vertex="1">
          <mxGeometry x="227.5" y="441" width="260" height="260" as="geometry" />
        </mxCell>
        <mxCell id="tA_WP59gzqtfs4d5mopg-9" value="&lt;font style=&quot;font-size: 20px;&quot;&gt;Lorem ipsum dolor&lt;/font&gt;" style="text;html=1;align=center;verticalAlign=middle;whiteSpace=wrap;rounded=0;" parent="1" vertex="1">
          <mxGeometry x="271" y="770" width="171" height="30" as="geometry" />
        </mxCell>
        <mxCell id="dmRf23WQp97VBM1ydwLL-4" value="&lt;p style=&quot;line-height: 120%;&quot;&gt;&lt;/p&gt;&lt;div style=&quot;font-size: 14px;&quot; id=&quot;lipsum&quot;&gt;&lt;div id=&quot;lipsum&quot;&gt;&lt;p&gt;Lorem ipsum dolor sit amet, consectetur adipiscing elit. Duis cursus &lt;br&gt;magna nibh, at fermentum mi consectetur maximus. Cras varius magna non &lt;br&gt;ultrices tincidunt. Duis iaculis elementum tellus et dapibus. Donec vel &lt;br&gt;congue arcu. Vestibulum non tortor a ipsum interdum scelerisque ut vitae&lt;br&gt; mi. Suspendisse id tincidunt metus, tempor vulputate ante. Duis &lt;br&gt;placerat bibendum quam eget porta.&lt;br&gt;&lt;/p&gt;&lt;br&gt;&lt;p&gt;&lt;br&gt;Mauris imperdiet, lectus nec ullamcorper condimentum, lacus odio &lt;br&gt;imperdiet nunc, finibus facilisis lorem justo ac lacus. Nunc lacus &lt;br&gt;velit, porttitor ac efficitur pellentesque, accumsan sit amet nulla. &lt;br&gt;Nunc eget laoreet orci. Sed sagittis porttitor odio, eu dictum lacus &lt;br&gt;consectetur pulvinar. Cras id tincidunt enim. Nam varius porta ligula &lt;br&gt;tempus scelerisque. Aenean et volutpat mi, eget imperdiet ante. Morbi &lt;br&gt;porttitor nibh non nisi faucibus interdum.&lt;br&gt;&lt;/p&gt;&lt;br&gt;&lt;p&gt;&lt;br&gt;Pellentesque placerat enim placerat neque tristique tempor. Aliquam &lt;br&gt;interdum, odio vitae viverra porttitor, eros dui rhoncus diam, ac &lt;br&gt;dapibus magna augue vel metus. Class aptent taciti sociosqu ad litora &lt;br&gt;torquent per conubia nostra, per inceptos himenaeos. Interdum et &lt;br&gt;malesuada fames ac ante ipsum primis in faucibus. Mauris faucibus odio &lt;br&gt;non justo vulputate, ac fermentum mauris ornare. Etiam at tortor &lt;br&gt;interdum, pulvinar nibh et, dignissim tellus. Integer vitae purus &lt;br&gt;rhoncus velit convallis dictum. Suspendisse eget sapien nisl. Nunc in &lt;br&gt;lacinia enim. Mauris sit amet nibh eu orci pretium faucibus sit amet in &lt;br&gt;ipsum.&lt;/p&gt;&lt;p&gt;&lt;/p&gt;&lt;/div&gt;&lt;/div&gt;&lt;p&gt;&lt;/p&gt;" style="text;html=1;align=left;verticalAlign=middle;whiteSpace=wrap;rounded=0;" parent="1" vertex="1">
          <mxGeometry x="520" y="439" width="979" height="510" as="geometry" />
        </mxCell>
        <mxCell id="u0VMU7IhyPjX97DBwYsi-8" value="&lt;p style=&quot;line-height: 120%;&quot;&gt;&lt;/p&gt;&lt;div style=&quot;font-size: 14px;&quot; id=&quot;lipsum&quot;&gt;&lt;div id=&quot;lipsum&quot;&gt;&lt;p&gt;Lorem ipsum dolor sit amet, consectetur adipiscing elit. Duis cursus &lt;br&gt;magna nibh, at fermentum mi consectetur maximus. Cras varius magna non &lt;br&gt;ultrices tincidunt. Duis iaculis elementum tellus et dapibus. Donec vel &lt;br&gt;congue arcu. Vestibulum non tortor a ipsum interdum scelerisque ut vitae&lt;br&gt; mi. Suspendisse id tincidunt metus, tempor vulputate ante. Duis &lt;br&gt;placerat bibendum quam eget porta.&lt;br&gt;&lt;/p&gt;&lt;br&gt;&lt;p&gt;&lt;br&gt;Mauris imperdiet, lectus nec ullamcorper condimentum, lacus odio &lt;br&gt;imperdiet nunc, finibus facilisis lorem justo ac lacus. Nunc lacus &lt;br&gt;velit, porttitor ac efficitur pellentesque, accumsan sit amet nulla. &lt;br&gt;Nunc eget laoreet orci. Sed sagittis porttitor odio, eu dictum lacus &lt;br&gt;consectetur pulvinar. Cras id tincidunt enim. Nam varius porta ligula &lt;br&gt;tempus scelerisque. Aenean et volutpat mi, eget imperdiet ante. Morbi &lt;br&gt;porttitor nibh non nisi faucibus interdum.&lt;br&gt;&lt;/p&gt;&lt;br&gt;&lt;p&gt;&lt;br&gt;Pellentesque placerat enim placerat neque tristique tempor. Aliquam &lt;br&gt;interdum, odio vitae viverra porttitor, eros dui rhoncus diam, ac &lt;br&gt;dapibus magna augue vel metus. Class aptent taciti sociosqu ad litora &lt;br&gt;torquent per conubia nostra, per inceptos himenaeos. Interdum et &lt;br&gt;malesuada fames ac ante ipsum primis in faucibus. Mauris faucibus odio &lt;br&gt;non justo vulputate, ac fermentum mauris ornare. Etiam at tortor &lt;br&gt;interdum, pulvinar nibh et, dignissim tellus. Integer vitae purus &lt;br&gt;rhoncus velit convallis dictum. Suspendisse eget sapien nisl. Nunc in &lt;br&gt;lacinia enim. Mauris sit amet nibh eu orci pretium faucibus sit amet in &lt;br&gt;ipsum.&lt;/p&gt;&lt;p&gt;&lt;/p&gt;&lt;/div&gt;&lt;/div&gt;&lt;p&gt;&lt;/p&gt;" style="text;html=1;align=left;verticalAlign=middle;whiteSpace=wrap;rounded=0;" parent="1" vertex="1">
          <mxGeometry x="520" y="1019" width="979" height="510" as="geometry" />
        </mxCell>
        <mxCell id="u0VMU7IhyPjX97DBwYsi-9" value="" style="endArrow=none;html=1;rounded=0;entryX=1;entryY=0.521;entryDx=0;entryDy=0;exitX=0.001;exitY=0.523;exitDx=0;exitDy=0;exitPerimeter=0;entryPerimeter=0;" parent="1" source="tA_WP59gzqtfs4d5mopg-2" target="tA_WP59gzqtfs4d5mopg-2" edge="1">
          <mxGeometry width="50" height="50" relative="1" as="geometry">
            <mxPoint x="810" y="1200" as="sourcePoint" />
            <mxPoint x="860" y="1150" as="targetPoint" />
          </mxGeometry>
        </mxCell>
        <mxCell id="Gm6379okQgXHz69HBZPx-1" value="&lt;font style=&quot;font-size: 21px;&quot;&gt;Lorem Ipsum&lt;/font&gt;" style="text;html=1;align=center;verticalAlign=middle;whiteSpace=wrap;rounded=0;" vertex="1" parent="1">
          <mxGeometry x="272" y="717" width="170" height="38" as="geometry" />
        </mxCell>
        <mxCell id="Gm6379okQgXHz69HBZPx-2" value="" style="rounded=0;whiteSpace=wrap;html=1;" vertex="1" parent="1">
          <mxGeometry x="222" y="1004" width="280" height="530" as="geometry" />
        </mxCell>
        <mxCell id="Gm6379okQgXHz69HBZPx-3" value="&lt;font style=&quot;font-size: 33px;&quot;&gt;IMG&lt;/font&gt;" style="whiteSpace=wrap;html=1;aspect=fixed;" vertex="1" parent="1">
          <mxGeometry x="228.5" y="1015" width="260" height="260" as="geometry" />
        </mxCell>
        <mxCell id="Gm6379okQgXHz69HBZPx-4" value="&lt;font style=&quot;font-size: 20px;&quot;&gt;Lorem ipsum dolor&lt;/font&gt;" style="text;html=1;align=center;verticalAlign=middle;whiteSpace=wrap;rounded=0;" vertex="1" parent="1">
          <mxGeometry x="272" y="1344" width="171" height="30" as="geometry" />
        </mxCell>
        <mxCell id="Gm6379okQgXHz69HBZPx-5" value="&lt;font style=&quot;font-size: 21px;&quot;&gt;Lorem Ipsum&lt;/font&gt;" style="text;html=1;align=center;verticalAlign=middle;whiteSpace=wrap;rounded=0;" vertex="1" parent="1">
          <mxGeometry x="273" y="1291" width="170" height="38" as="geometry" />
        </mxCell>
        <mxCell id="IRMFrXtX6cIpd2aG9x1I-1" value="" style="rounded=1;whiteSpace=wrap;html=1;" vertex="1" parent="1">
          <mxGeometry x="238" y="1580" width="1157" height="200" as="geometry" />
        </mxCell>
        <mxCell id="IRMFrXtX6cIpd2aG9x1I-2" value="&lt;font style=&quot;font-size: 17px;&quot;&gt;Lorem&lt;/font&gt;" style="text;html=1;align=center;verticalAlign=middle;whiteSpace=wrap;rounded=0;" vertex="1" parent="1">
          <mxGeometry x="491" y="1602" width="109" height="40" as="geometry" />
        </mxCell>
        <mxCell id="IRMFrXtX6cIpd2aG9x1I-3" value="icon" style="rounded=1;whiteSpace=wrap;html=1;" vertex="1" parent="1">
          <mxGeometry x="466" y="1600" width="39" height="40" as="geometry" />
        </mxCell>
        <mxCell id="IRMFrXtX6cIpd2aG9x1I-4" value="&lt;font style=&quot;font-size: 17px;&quot;&gt;Lorem&lt;/font&gt;" style="text;html=1;align=center;verticalAlign=middle;whiteSpace=wrap;rounded=0;" vertex="1" parent="1">
          <mxGeometry x="492" y="1661" width="109" height="40" as="geometry" />
        </mxCell>
        <mxCell id="IRMFrXtX6cIpd2aG9x1I-5" value="icon" style="rounded=1;whiteSpace=wrap;html=1;" vertex="1" parent="1">
          <mxGeometry x="466" y="1659" width="39" height="40" as="geometry" />
        </mxCell>
        <mxCell id="IRMFrXtX6cIpd2aG9x1I-6" value="&lt;font style=&quot;font-size: 17px;&quot;&gt;Lorem&lt;/font&gt;" style="text;html=1;align=center;verticalAlign=middle;whiteSpace=wrap;rounded=0;" vertex="1" parent="1">
          <mxGeometry x="491" y="1722" width="109" height="40" as="geometry" />
        </mxCell>
        <mxCell id="IRMFrXtX6cIpd2aG9x1I-7" value="icon" style="rounded=1;whiteSpace=wrap;html=1;" vertex="1" parent="1">
          <mxGeometry x="465" y="1720" width="39" height="40" as="geometry" />
        </mxCell>
        <mxCell id="IRMFrXtX6cIpd2aG9x1I-8" value="&lt;div style=&quot;font-size: 10px;&quot;&gt;&lt;br&gt;&lt;/div&gt;&lt;div style=&quot;font-size: 10px;&quot;&gt;&lt;span style=&quot;&quot;&gt;&amp;nbsp;Lorem ipsum dolor sit amet, consectetur adipiscing elit. Donec vitae.&amp;nbsp;&lt;/span&gt;&lt;br&gt;&lt;/div&gt;" style="text;html=1;align=center;verticalAlign=middle;whiteSpace=wrap;rounded=0;" vertex="1" parent="1">
          <mxGeometry x="968" y="1610.5" width="325" height="23" as="geometry" />
        </mxCell>
        <mxCell id="IRMFrXtX6cIpd2aG9x1I-9" value="&lt;font style=&quot;font-size: 17px;&quot;&gt;Lorem&lt;/font&gt;" style="text;html=1;align=center;verticalAlign=middle;whiteSpace=wrap;rounded=0;" vertex="1" parent="1">
          <mxGeometry x="1001" y="1646" width="109" height="40" as="geometry" />
        </mxCell>
        <mxCell id="IRMFrXtX6cIpd2aG9x1I-10" value="icon" style="rounded=1;whiteSpace=wrap;html=1;" vertex="1" parent="1">
          <mxGeometry x="976" y="1644" width="39" height="40" as="geometry" />
        </mxCell>
        <mxCell id="HTrLYOv5gyg1SX6m5jOU-1" value="" style="rounded=1;whiteSpace=wrap;html=1;" vertex="1" parent="1">
          <mxGeometry x="230" y="307" width="1213" height="40" as="geometry" />
        </mxCell>
        <mxCell id="HTrLYOv5gyg1SX6m5jOU-2" value="Lorem -&amp;gt; Lorem -&amp;gt; Lorem" style="text;html=1;align=center;verticalAlign=middle;whiteSpace=wrap;rounded=0;" vertex="1" parent="1">
          <mxGeometry x="230" y="312" width="200" height="30" as="geometry" />
        </mxCell>
      </root>
    </mxGraphModel>
  </diagram>
  <diagram name="login" id="Q3gExBYawIkAaVDE99MR">
    <mxGraphModel dx="2049" dy="1246" grid="1" gridSize="10" guides="1" tooltips="1" connect="1" arrows="1" fold="1" page="1" pageScale="1" pageWidth="1600" pageHeight="900" math="0" shadow="0">
      <root>
        <mxCell id="0" />
        <mxCell id="1" parent="0" />
        <mxCell id="i8XcprX2Xb-q_iq-ho5d-40" value="button" style="rounded=0;whiteSpace=wrap;html=1;" vertex="1" parent="1">
          <mxGeometry x="1492" y="38" width="110" height="50" as="geometry" />
        </mxCell>
        <mxCell id="i8XcprX2Xb-q_iq-ho5d-41" value="&lt;font style=&quot;font-size: 29px;&quot;&gt;IMG&lt;/font&gt;" style="rounded=1;whiteSpace=wrap;html=1;" vertex="1" parent="1">
          <mxGeometry x="440" y="110" width="830" height="195" as="geometry" />
        </mxCell>
        <mxCell id="i8XcprX2Xb-q_iq-ho5d-42" value="button" style="rounded=0;whiteSpace=wrap;html=1;" vertex="1" parent="1">
          <mxGeometry x="1368" y="38" width="110" height="50" as="geometry" />
        </mxCell>
        <mxCell id="i8XcprX2Xb-q_iq-ho5d-43" value="button" style="rounded=0;whiteSpace=wrap;html=1;" vertex="1" parent="1">
          <mxGeometry x="34" y="35" width="110" height="50" as="geometry" />
        </mxCell>
        <mxCell id="i8XcprX2Xb-q_iq-ho5d-44" value="button" style="rounded=0;whiteSpace=wrap;html=1;" vertex="1" parent="1">
          <mxGeometry x="160" y="35" width="110" height="50" as="geometry" />
        </mxCell>
        <mxCell id="i8XcprX2Xb-q_iq-ho5d-45" value="" style="rounded=1;whiteSpace=wrap;html=1;" vertex="1" parent="1">
          <mxGeometry x="480" y="372" width="780" height="388" as="geometry" />
        </mxCell>
        <mxCell id="i8XcprX2Xb-q_iq-ho5d-47" value="" style="rounded=1;whiteSpace=wrap;html=1;" vertex="1" parent="1">
          <mxGeometry x="240" y="317" width="1213" height="40" as="geometry" />
        </mxCell>
        <mxCell id="i8XcprX2Xb-q_iq-ho5d-48" value="Lorem -&amp;gt; Lorem" style="text;html=1;align=center;verticalAlign=middle;whiteSpace=wrap;rounded=0;" vertex="1" parent="1">
          <mxGeometry x="240" y="322" width="130" height="30" as="geometry" />
        </mxCell>
        <mxCell id="i8XcprX2Xb-q_iq-ho5d-50" value="" style="rounded=1;whiteSpace=wrap;html=1;" vertex="1" parent="1">
          <mxGeometry x="262" y="793" width="1158" height="200" as="geometry" />
        </mxCell>
        <mxCell id="i8XcprX2Xb-q_iq-ho5d-51" value="&lt;font style=&quot;font-size: 17px;&quot;&gt;Lorem&lt;/font&gt;" style="text;html=1;align=center;verticalAlign=middle;whiteSpace=wrap;rounded=0;" vertex="1" parent="1">
          <mxGeometry x="515" y="815" width="110" height="40" as="geometry" />
        </mxCell>
        <mxCell id="i8XcprX2Xb-q_iq-ho5d-52" value="icon" style="rounded=1;whiteSpace=wrap;html=1;" vertex="1" parent="1">
          <mxGeometry x="490" y="813" width="40" height="40" as="geometry" />
        </mxCell>
        <mxCell id="i8XcprX2Xb-q_iq-ho5d-53" value="&lt;font style=&quot;font-size: 17px;&quot;&gt;Lorem&lt;/font&gt;" style="text;html=1;align=center;verticalAlign=middle;whiteSpace=wrap;rounded=0;" vertex="1" parent="1">
          <mxGeometry x="516" y="874" width="110" height="40" as="geometry" />
        </mxCell>
        <mxCell id="i8XcprX2Xb-q_iq-ho5d-54" value="icon" style="rounded=1;whiteSpace=wrap;html=1;" vertex="1" parent="1">
          <mxGeometry x="490" y="872" width="40" height="40" as="geometry" />
        </mxCell>
        <mxCell id="i8XcprX2Xb-q_iq-ho5d-55" value="&lt;font style=&quot;font-size: 17px;&quot;&gt;Lorem&lt;/font&gt;" style="text;html=1;align=center;verticalAlign=middle;whiteSpace=wrap;rounded=0;" vertex="1" parent="1">
          <mxGeometry x="515" y="935" width="110" height="40" as="geometry" />
        </mxCell>
        <mxCell id="i8XcprX2Xb-q_iq-ho5d-56" value="icon" style="rounded=1;whiteSpace=wrap;html=1;" vertex="1" parent="1">
          <mxGeometry x="489" y="933" width="40" height="40" as="geometry" />
        </mxCell>
        <mxCell id="i8XcprX2Xb-q_iq-ho5d-57" value="&lt;div style=&quot;font-size: 10px;&quot;&gt;&lt;br&gt;&lt;/div&gt;&lt;div style=&quot;font-size: 10px;&quot;&gt;&lt;span style=&quot;&quot;&gt;&amp;nbsp;Lorem ipsum dolor sit amet, consectetur adipiscing elit. Donec vitae.&amp;nbsp;&lt;/span&gt;&lt;br&gt;&lt;/div&gt;" style="text;html=1;align=center;verticalAlign=middle;whiteSpace=wrap;rounded=0;" vertex="1" parent="1">
          <mxGeometry x="1000" y="823.5" width="310" height="23" as="geometry" />
        </mxCell>
        <mxCell id="i8XcprX2Xb-q_iq-ho5d-58" value="&lt;font style=&quot;font-size: 17px;&quot;&gt;Lorem&lt;/font&gt;" style="text;html=1;align=center;verticalAlign=middle;whiteSpace=wrap;rounded=0;" vertex="1" parent="1">
          <mxGeometry x="1025" y="859" width="110" height="40" as="geometry" />
        </mxCell>
        <mxCell id="i8XcprX2Xb-q_iq-ho5d-59" value="icon" style="rounded=1;whiteSpace=wrap;html=1;" vertex="1" parent="1">
          <mxGeometry x="1000" y="857" width="40" height="40" as="geometry" />
        </mxCell>
        <mxCell id="i8XcprX2Xb-q_iq-ho5d-79" value="&lt;font style=&quot;font-size: 29px;&quot;&gt;Lorem&lt;/font&gt;" style="text;html=1;align=center;verticalAlign=middle;whiteSpace=wrap;rounded=0;" vertex="1" parent="1">
          <mxGeometry x="792" y="394" width="100" height="30" as="geometry" />
        </mxCell>
        <mxCell id="i8XcprX2Xb-q_iq-ho5d-80" value="" style="endArrow=none;html=1;rounded=0;entryX=0.996;entryY=0.188;entryDx=0;entryDy=0;entryPerimeter=0;exitX=-0.001;exitY=0.193;exitDx=0;exitDy=0;exitPerimeter=0;" edge="1" parent="1" source="i8XcprX2Xb-q_iq-ho5d-45" target="i8XcprX2Xb-q_iq-ho5d-45">
          <mxGeometry width="50" height="50" relative="1" as="geometry">
            <mxPoint x="770" y="520" as="sourcePoint" />
            <mxPoint x="820" y="470" as="targetPoint" />
          </mxGeometry>
        </mxCell>
        <mxCell id="i8XcprX2Xb-q_iq-ho5d-81" value="Lorem" style="text;html=1;align=center;verticalAlign=middle;whiteSpace=wrap;rounded=0;" vertex="1" parent="1">
          <mxGeometry x="520" y="460" width="110" height="30" as="geometry" />
        </mxCell>
        <mxCell id="i8XcprX2Xb-q_iq-ho5d-82" value="" style="rounded=0;whiteSpace=wrap;html=1;" vertex="1" parent="1">
          <mxGeometry x="540" y="490" width="690" height="30" as="geometry" />
        </mxCell>
        <mxCell id="i8XcprX2Xb-q_iq-ho5d-83" value="Lorem" style="text;html=1;align=center;verticalAlign=middle;whiteSpace=wrap;rounded=0;" vertex="1" parent="1">
          <mxGeometry x="516" y="530" width="110" height="30" as="geometry" />
        </mxCell>
        <mxCell id="i8XcprX2Xb-q_iq-ho5d-84" value="" style="rounded=0;whiteSpace=wrap;html=1;" vertex="1" parent="1">
          <mxGeometry x="536" y="560" width="690" height="30" as="geometry" />
        </mxCell>
        <mxCell id="i8XcprX2Xb-q_iq-ho5d-85" value="" style="rounded=1;whiteSpace=wrap;html=1;" vertex="1" parent="1">
          <mxGeometry x="540" y="610" width="30" height="30" as="geometry" />
        </mxCell>
        <mxCell id="i8XcprX2Xb-q_iq-ho5d-86" value="Lorem" style="text;html=1;align=center;verticalAlign=middle;whiteSpace=wrap;rounded=0;" vertex="1" parent="1">
          <mxGeometry x="546" y="610" width="110" height="30" as="geometry" />
        </mxCell>
        <mxCell id="i8XcprX2Xb-q_iq-ho5d-87" value="" style="rounded=1;whiteSpace=wrap;html=1;" vertex="1" parent="1">
          <mxGeometry x="540" y="660" width="30" height="30" as="geometry" />
        </mxCell>
        <mxCell id="i8XcprX2Xb-q_iq-ho5d-88" value="Lorem" style="text;html=1;align=center;verticalAlign=middle;whiteSpace=wrap;rounded=0;" vertex="1" parent="1">
          <mxGeometry x="547" y="660" width="110" height="30" as="geometry" />
        </mxCell>
        <mxCell id="i8XcprX2Xb-q_iq-ho5d-89" value="Lorem" style="rounded=1;whiteSpace=wrap;html=1;" vertex="1" parent="1">
          <mxGeometry x="540" y="710" width="110" height="40" as="geometry" />
        </mxCell>
      </root>
    </mxGraphModel>
  </diagram>
  <diagram id="fAOYbdZSdK_KMPnWYppz" name="register">
    <mxGraphModel dx="2049" dy="1246" grid="1" gridSize="10" guides="1" tooltips="1" connect="1" arrows="1" fold="1" page="1" pageScale="1" pageWidth="1600" pageHeight="900" math="0" shadow="0">
      <root>
        <mxCell id="0" />
        <mxCell id="1" parent="0" />
        <mxCell id="C6UvG2phd6zYw5VI-5ON-1" value="button" style="rounded=0;whiteSpace=wrap;html=1;" vertex="1" parent="1">
          <mxGeometry x="1492" y="38" width="110" height="50" as="geometry" />
        </mxCell>
        <mxCell id="C6UvG2phd6zYw5VI-5ON-2" value="&lt;font style=&quot;font-size: 29px;&quot;&gt;IMG&lt;/font&gt;" style="rounded=1;whiteSpace=wrap;html=1;" vertex="1" parent="1">
          <mxGeometry x="440" y="110" width="830" height="195" as="geometry" />
        </mxCell>
        <mxCell id="C6UvG2phd6zYw5VI-5ON-3" value="button" style="rounded=0;whiteSpace=wrap;html=1;" vertex="1" parent="1">
          <mxGeometry x="1368" y="38" width="110" height="50" as="geometry" />
        </mxCell>
        <mxCell id="C6UvG2phd6zYw5VI-5ON-4" value="button" style="rounded=0;whiteSpace=wrap;html=1;" vertex="1" parent="1">
          <mxGeometry x="34" y="35" width="110" height="50" as="geometry" />
        </mxCell>
        <mxCell id="C6UvG2phd6zYw5VI-5ON-5" value="button" style="rounded=0;whiteSpace=wrap;html=1;" vertex="1" parent="1">
          <mxGeometry x="160" y="35" width="110" height="50" as="geometry" />
        </mxCell>
        <mxCell id="C6UvG2phd6zYw5VI-5ON-6" value="" style="rounded=1;whiteSpace=wrap;html=1;" vertex="1" parent="1">
          <mxGeometry x="480" y="372" width="780" height="398" as="geometry" />
        </mxCell>
        <mxCell id="C6UvG2phd6zYw5VI-5ON-7" value="" style="rounded=1;whiteSpace=wrap;html=1;" vertex="1" parent="1">
          <mxGeometry x="240" y="317" width="1213" height="40" as="geometry" />
        </mxCell>
        <mxCell id="C6UvG2phd6zYw5VI-5ON-8" value="Lorem -&amp;gt; Lorem" style="text;html=1;align=center;verticalAlign=middle;whiteSpace=wrap;rounded=0;" vertex="1" parent="1">
          <mxGeometry x="240" y="322" width="130" height="30" as="geometry" />
        </mxCell>
        <mxCell id="C6UvG2phd6zYw5VI-5ON-9" value="" style="rounded=1;whiteSpace=wrap;html=1;" vertex="1" parent="1">
          <mxGeometry x="262" y="793" width="1158" height="200" as="geometry" />
        </mxCell>
        <mxCell id="C6UvG2phd6zYw5VI-5ON-10" value="&lt;font style=&quot;font-size: 17px;&quot;&gt;Lorem&lt;/font&gt;" style="text;html=1;align=center;verticalAlign=middle;whiteSpace=wrap;rounded=0;" vertex="1" parent="1">
          <mxGeometry x="515" y="815" width="110" height="40" as="geometry" />
        </mxCell>
        <mxCell id="C6UvG2phd6zYw5VI-5ON-11" value="icon" style="rounded=1;whiteSpace=wrap;html=1;" vertex="1" parent="1">
          <mxGeometry x="490" y="813" width="40" height="40" as="geometry" />
        </mxCell>
        <mxCell id="C6UvG2phd6zYw5VI-5ON-12" value="&lt;font style=&quot;font-size: 17px;&quot;&gt;Lorem&lt;/font&gt;" style="text;html=1;align=center;verticalAlign=middle;whiteSpace=wrap;rounded=0;" vertex="1" parent="1">
          <mxGeometry x="516" y="874" width="110" height="40" as="geometry" />
        </mxCell>
        <mxCell id="C6UvG2phd6zYw5VI-5ON-13" value="icon" style="rounded=1;whiteSpace=wrap;html=1;" vertex="1" parent="1">
          <mxGeometry x="490" y="872" width="40" height="40" as="geometry" />
        </mxCell>
        <mxCell id="C6UvG2phd6zYw5VI-5ON-14" value="&lt;font style=&quot;font-size: 17px;&quot;&gt;Lorem&lt;/font&gt;" style="text;html=1;align=center;verticalAlign=middle;whiteSpace=wrap;rounded=0;" vertex="1" parent="1">
          <mxGeometry x="515" y="935" width="110" height="40" as="geometry" />
        </mxCell>
        <mxCell id="C6UvG2phd6zYw5VI-5ON-15" value="icon" style="rounded=1;whiteSpace=wrap;html=1;" vertex="1" parent="1">
          <mxGeometry x="489" y="933" width="40" height="40" as="geometry" />
        </mxCell>
        <mxCell id="C6UvG2phd6zYw5VI-5ON-16" value="&lt;div style=&quot;font-size: 10px;&quot;&gt;&lt;br&gt;&lt;/div&gt;&lt;div style=&quot;font-size: 10px;&quot;&gt;&lt;span style=&quot;&quot;&gt;&amp;nbsp;Lorem ipsum dolor sit amet, consectetur adipiscing elit. Donec vitae.&amp;nbsp;&lt;/span&gt;&lt;br&gt;&lt;/div&gt;" style="text;html=1;align=center;verticalAlign=middle;whiteSpace=wrap;rounded=0;" vertex="1" parent="1">
          <mxGeometry x="1000" y="823.5" width="310" height="23" as="geometry" />
        </mxCell>
        <mxCell id="C6UvG2phd6zYw5VI-5ON-17" value="&lt;font style=&quot;font-size: 17px;&quot;&gt;Lorem&lt;/font&gt;" style="text;html=1;align=center;verticalAlign=middle;whiteSpace=wrap;rounded=0;" vertex="1" parent="1">
          <mxGeometry x="1025" y="859" width="110" height="40" as="geometry" />
        </mxCell>
        <mxCell id="C6UvG2phd6zYw5VI-5ON-18" value="icon" style="rounded=1;whiteSpace=wrap;html=1;" vertex="1" parent="1">
          <mxGeometry x="1000" y="857" width="40" height="40" as="geometry" />
        </mxCell>
        <mxCell id="C6UvG2phd6zYw5VI-5ON-19" value="&lt;font style=&quot;font-size: 29px;&quot;&gt;Lorem&lt;/font&gt;" style="text;html=1;align=center;verticalAlign=middle;whiteSpace=wrap;rounded=0;" vertex="1" parent="1">
          <mxGeometry x="792" y="394" width="100" height="30" as="geometry" />
        </mxCell>
        <mxCell id="C6UvG2phd6zYw5VI-5ON-20" value="" style="endArrow=none;html=1;rounded=0;entryX=0.996;entryY=0.188;entryDx=0;entryDy=0;entryPerimeter=0;exitX=-0.001;exitY=0.193;exitDx=0;exitDy=0;exitPerimeter=0;" edge="1" parent="1" source="C6UvG2phd6zYw5VI-5ON-6" target="C6UvG2phd6zYw5VI-5ON-6">
          <mxGeometry width="50" height="50" relative="1" as="geometry">
            <mxPoint x="770" y="520" as="sourcePoint" />
            <mxPoint x="820" y="470" as="targetPoint" />
          </mxGeometry>
        </mxCell>
        <mxCell id="C6UvG2phd6zYw5VI-5ON-21" value="Lorem" style="text;html=1;align=center;verticalAlign=middle;whiteSpace=wrap;rounded=0;" vertex="1" parent="1">
          <mxGeometry x="509" y="456" width="110" height="30" as="geometry" />
        </mxCell>
        <mxCell id="C6UvG2phd6zYw5VI-5ON-22" value="" style="rounded=0;whiteSpace=wrap;html=1;" vertex="1" parent="1">
          <mxGeometry x="529" y="486" width="690" height="30" as="geometry" />
        </mxCell>
        <mxCell id="C6UvG2phd6zYw5VI-5ON-23" value="Lorem" style="text;html=1;align=center;verticalAlign=middle;whiteSpace=wrap;rounded=0;" vertex="1" parent="1">
          <mxGeometry x="509" y="519" width="110" height="30" as="geometry" />
        </mxCell>
        <mxCell id="C6UvG2phd6zYw5VI-5ON-24" value="" style="rounded=0;whiteSpace=wrap;html=1;" vertex="1" parent="1">
          <mxGeometry x="529" y="549" width="690" height="30" as="geometry" />
        </mxCell>
        <mxCell id="C6UvG2phd6zYw5VI-5ON-29" value="Lorem" style="rounded=1;whiteSpace=wrap;html=1;" vertex="1" parent="1">
          <mxGeometry x="535" y="723" width="110" height="40" as="geometry" />
        </mxCell>
        <mxCell id="C6UvG2phd6zYw5VI-5ON-30" value="Lorem" style="text;html=1;align=center;verticalAlign=middle;whiteSpace=wrap;rounded=0;" vertex="1" parent="1">
          <mxGeometry x="510" y="590" width="110" height="30" as="geometry" />
        </mxCell>
        <mxCell id="C6UvG2phd6zYw5VI-5ON-31" value="" style="rounded=0;whiteSpace=wrap;html=1;" vertex="1" parent="1">
          <mxGeometry x="530" y="620" width="690" height="30" as="geometry" />
        </mxCell>
        <mxCell id="C6UvG2phd6zYw5VI-5ON-32" value="Lorem" style="text;html=1;align=center;verticalAlign=middle;whiteSpace=wrap;rounded=0;" vertex="1" parent="1">
          <mxGeometry x="515" y="650" width="110" height="30" as="geometry" />
        </mxCell>
        <mxCell id="C6UvG2phd6zYw5VI-5ON-33" value="" style="rounded=0;whiteSpace=wrap;html=1;" vertex="1" parent="1">
          <mxGeometry x="535" y="680" width="690" height="30" as="geometry" />
        </mxCell>
      </root>
    </mxGraphModel>
  </diagram>
  <diagram id="4t-byTYMHtnrN03I4u2O" name="settings">
    <mxGraphModel dx="2049" dy="1246" grid="1" gridSize="10" guides="1" tooltips="1" connect="1" arrows="1" fold="1" page="1" pageScale="1" pageWidth="1600" pageHeight="900" math="0" shadow="0">
      <root>
        <mxCell id="0" />
        <mxCell id="1" parent="0" />
        <mxCell id="6fbvNnvmfjdXrvMcIpBw-1" value="button" style="rounded=0;whiteSpace=wrap;html=1;" vertex="1" parent="1">
          <mxGeometry x="1472" y="18" width="110" height="50" as="geometry" />
        </mxCell>
        <mxCell id="6fbvNnvmfjdXrvMcIpBw-2" value="&lt;font style=&quot;font-size: 29px;&quot;&gt;IMG&lt;/font&gt;" style="rounded=1;whiteSpace=wrap;html=1;" vertex="1" parent="1">
          <mxGeometry x="420" y="90" width="830" height="195" as="geometry" />
        </mxCell>
        <mxCell id="6fbvNnvmfjdXrvMcIpBw-3" value="button" style="rounded=0;whiteSpace=wrap;html=1;" vertex="1" parent="1">
          <mxGeometry x="1348" y="18" width="110" height="50" as="geometry" />
        </mxCell>
        <mxCell id="6fbvNnvmfjdXrvMcIpBw-4" value="button" style="rounded=0;whiteSpace=wrap;html=1;" vertex="1" parent="1">
          <mxGeometry x="14" y="15" width="110" height="50" as="geometry" />
        </mxCell>
        <mxCell id="6fbvNnvmfjdXrvMcIpBw-5" value="button" style="rounded=0;whiteSpace=wrap;html=1;" vertex="1" parent="1">
          <mxGeometry x="140" y="15" width="110" height="50" as="geometry" />
        </mxCell>
        <mxCell id="6fbvNnvmfjdXrvMcIpBw-6" value="" style="rounded=1;whiteSpace=wrap;html=1;" vertex="1" parent="1">
          <mxGeometry x="242" y="352" width="1160" height="568" as="geometry" />
        </mxCell>
        <mxCell id="6fbvNnvmfjdXrvMcIpBw-68" value="" style="rounded=1;whiteSpace=wrap;html=1;" vertex="1" parent="1">
          <mxGeometry x="220" y="297" width="1213" height="40" as="geometry" />
        </mxCell>
        <mxCell id="6fbvNnvmfjdXrvMcIpBw-69" value="Lorem -&amp;gt; Lorem" style="text;html=1;align=center;verticalAlign=middle;whiteSpace=wrap;rounded=0;" vertex="1" parent="1">
          <mxGeometry x="220" y="302" width="120" height="30" as="geometry" />
        </mxCell>
        <mxCell id="6fbvNnvmfjdXrvMcIpBw-71" value="" style="rounded=1;whiteSpace=wrap;html=1;" vertex="1" parent="1">
          <mxGeometry x="242" y="958" width="1158" height="200" as="geometry" />
        </mxCell>
        <mxCell id="6fbvNnvmfjdXrvMcIpBw-72" value="&lt;font style=&quot;font-size: 17px;&quot;&gt;Lorem&lt;/font&gt;" style="text;html=1;align=center;verticalAlign=middle;whiteSpace=wrap;rounded=0;" vertex="1" parent="1">
          <mxGeometry x="495" y="980" width="110" height="40" as="geometry" />
        </mxCell>
        <mxCell id="6fbvNnvmfjdXrvMcIpBw-73" value="icon" style="rounded=1;whiteSpace=wrap;html=1;" vertex="1" parent="1">
          <mxGeometry x="470" y="978" width="40" height="40" as="geometry" />
        </mxCell>
        <mxCell id="6fbvNnvmfjdXrvMcIpBw-74" value="&lt;font style=&quot;font-size: 17px;&quot;&gt;Lorem&lt;/font&gt;" style="text;html=1;align=center;verticalAlign=middle;whiteSpace=wrap;rounded=0;" vertex="1" parent="1">
          <mxGeometry x="496" y="1039" width="110" height="40" as="geometry" />
        </mxCell>
        <mxCell id="6fbvNnvmfjdXrvMcIpBw-75" value="icon" style="rounded=1;whiteSpace=wrap;html=1;" vertex="1" parent="1">
          <mxGeometry x="470" y="1037" width="40" height="40" as="geometry" />
        </mxCell>
        <mxCell id="6fbvNnvmfjdXrvMcIpBw-76" value="&lt;font style=&quot;font-size: 17px;&quot;&gt;Lorem&lt;/font&gt;" style="text;html=1;align=center;verticalAlign=middle;whiteSpace=wrap;rounded=0;" vertex="1" parent="1">
          <mxGeometry x="495" y="1100" width="110" height="40" as="geometry" />
        </mxCell>
        <mxCell id="6fbvNnvmfjdXrvMcIpBw-77" value="icon" style="rounded=1;whiteSpace=wrap;html=1;" vertex="1" parent="1">
          <mxGeometry x="469" y="1098" width="40" height="40" as="geometry" />
        </mxCell>
        <mxCell id="6fbvNnvmfjdXrvMcIpBw-78" value="&lt;div style=&quot;font-size: 10px;&quot;&gt;&lt;br&gt;&lt;/div&gt;&lt;div style=&quot;font-size: 10px;&quot;&gt;&lt;span style=&quot;&quot;&gt;&amp;nbsp;Lorem ipsum dolor sit amet, consectetur adipiscing elit. Donec vitae.&amp;nbsp;&lt;/span&gt;&lt;br&gt;&lt;/div&gt;" style="text;html=1;align=center;verticalAlign=middle;whiteSpace=wrap;rounded=0;" vertex="1" parent="1">
          <mxGeometry x="980" y="988.5" width="310" height="23" as="geometry" />
        </mxCell>
        <mxCell id="6fbvNnvmfjdXrvMcIpBw-79" value="&lt;font style=&quot;font-size: 17px;&quot;&gt;Lorem&lt;/font&gt;" style="text;html=1;align=center;verticalAlign=middle;whiteSpace=wrap;rounded=0;" vertex="1" parent="1">
          <mxGeometry x="1005" y="1024" width="110" height="40" as="geometry" />
        </mxCell>
        <mxCell id="6fbvNnvmfjdXrvMcIpBw-80" value="icon" style="rounded=1;whiteSpace=wrap;html=1;" vertex="1" parent="1">
          <mxGeometry x="980" y="1022" width="40" height="40" as="geometry" />
        </mxCell>
        <mxCell id="6fbvNnvmfjdXrvMcIpBw-81" value="&lt;font style=&quot;font-size: 26px;&quot;&gt;Lorem&lt;/font&gt;" style="text;html=1;align=center;verticalAlign=middle;whiteSpace=wrap;rounded=0;" vertex="1" parent="1">
          <mxGeometry x="307" y="388" width="70" height="30" as="geometry" />
        </mxCell>
        <mxCell id="6fbvNnvmfjdXrvMcIpBw-82" value="&lt;font style=&quot;font-size: 16px;&quot;&gt;Lorem&lt;/font&gt;" style="text;html=1;align=center;verticalAlign=middle;whiteSpace=wrap;rounded=0;" vertex="1" parent="1">
          <mxGeometry x="765" y="480" width="70" height="30" as="geometry" />
        </mxCell>
        <mxCell id="6fbvNnvmfjdXrvMcIpBw-83" value="IMG" style="ellipse;whiteSpace=wrap;html=1;" vertex="1" parent="1">
          <mxGeometry x="743" y="532" width="127" height="128" as="geometry" />
        </mxCell>
        <mxCell id="6fbvNnvmfjdXrvMcIpBw-85" value="&lt;font style=&quot;font-size: 16px;&quot;&gt;Lorem&lt;/font&gt;" style="text;html=1;align=center;verticalAlign=middle;whiteSpace=wrap;rounded=0;" vertex="1" parent="1">
          <mxGeometry x="276" y="710" width="70" height="30" as="geometry" />
        </mxCell>
        <mxCell id="6fbvNnvmfjdXrvMcIpBw-86" value="Upload" style="rounded=1;whiteSpace=wrap;html=1;align=left;" vertex="1" parent="1">
          <mxGeometry x="276" y="740" width="1100" height="40" as="geometry" />
        </mxCell>
        <mxCell id="6fbvNnvmfjdXrvMcIpBw-87" value="&lt;div&gt;&lt;br&gt;&lt;/div&gt;&lt;div&gt;&lt;span style=&quot;font-size: 10px;&quot;&gt;&amp;nbsp;Lorem ipsum dolor sit amet, consectetur adipiscing elit. Donec vitae.&amp;nbsp;&lt;/span&gt;&lt;br&gt;&lt;/div&gt;" style="text;html=1;align=center;verticalAlign=middle;whiteSpace=wrap;rounded=0;" vertex="1" parent="1">
          <mxGeometry x="274" y="790" width="320" height="30" as="geometry" />
        </mxCell>
        <mxCell id="6fbvNnvmfjdXrvMcIpBw-88" value="Lorem" style="rounded=1;whiteSpace=wrap;html=1;align=left;" vertex="1" parent="1">
          <mxGeometry x="276.5" y="840" width="1100" height="40" as="geometry" />
        </mxCell>
      </root>
    </mxGraphModel>
  </diagram>
</mxfile>
